<svg viewBox="0 0 560 480" fill="none" xmlns="http://www.w3.org/2000/svg" role="img" aria-label="Engineer workspace illustration">
  <defs>
    <linearGradient id="ew-sky" x1="0" y1="0" x2="560" y2="480" gradientUnits="userSpaceOnUse">
      <stop stop-color="#0ea5e9" stop-opacity="0.12"/>
      <stop offset="1" stop-color="#6366f1" stop-opacity="0.06"/>
    </linearGradient>
    <linearGradient id="ew-screen" x1="120" y1="100" x2="320" y2="260" gradientUnits="userSpaceOnUse">
      <stop stop-color="#18181b"/>
      <stop offset="1" stop-color="#27272a"/>
    </linearGradient>
    <filter id="ew-soft" x="-20%" y="-20%" width="140%" height="140%">
      <feDropShadow dx="0" dy="8" stdDeviation="16" flood-color="#0f172a" flood-opacity="0.08"/>
    </filter>
  </defs>
  <rect width="560" height="480" fill="url(#ew-sky)" rx="24"/>
  <path d="M 80 380 Q 280 280 480 360" stroke="#0ea5e9" stroke-opacity="0.2" stroke-width="1.5" stroke-dasharray="6 8"/>
  <rect x="72" y="312" width="416" height="8" rx="4" fill="#e4e4e7"/>
  <g filter="url(#ew-soft)">
    <rect x="108" y="108" width="248" height="168" rx="14" fill="url(#ew-screen)"/>
    <rect x="120" y="120" width="224" height="132" rx="8" fill="#09090b"/>
    <rect x="120" y="120" width="224" height="28" rx="8" fill="#27272a"/>
    <circle cx="136" cy="134" r="4" fill="#ef4444" opacity="0.85"/>
    <circle cx="152" cy="134" r="4" fill="#eab308" opacity="0.85"/>
    <circle cx="168" cy="134" r="4" fill="#22c55e" opacity="0.85"/>
    <rect x="132" y="162" width="72" height="6" rx="3" fill="#0ea5e9" opacity="0.9"/>
    <rect x="132" y="178" width="128" height="5" rx="2.5" fill="#52525b"/>
    <rect x="148" y="192" width="96" height="5" rx="2.5" fill="#52525b"/>
    <rect x="212" y="276" width="40" height="36" rx="4" fill="#3f3f46"/>
    <rect x="192" y="308" width="80" height="6" rx="3" fill="#52525b"/>
  </g>
  <g filter="url(#ew-soft)">
    <rect x="372" y="132" width="120" height="152" rx="12" fill="#ffffff" stroke="#e4e4e7" stroke-width="1"/>
    <rect x="388" y="152" width="56" height="6" rx="3" fill="#18181b"/>
    <rect x="388" y="168" width="88" height="4" rx="2" fill="#d4d4d8"/>
    <rect x="388" y="232" width="40" height="16" rx="6" fill="#0ea5e9" opacity="0.15"/>
  </g>
  <g filter="url(#ew-soft)">
    <rect x="372" y="300" width="120" height="56" rx="12" fill="#ffffff" stroke="#e4e4e7" stroke-width="1"/>
    <polyline points="388,336 404,324 420,330 436,312 452,318 468,308" stroke="#0ea5e9" stroke-width="2" stroke-linecap="round" stroke-linejoin="round" fill="none"/>
  </g>
  <g filter="url(#ew-soft)">
    <rect x="88" y="72" width="108" height="32" rx="16" fill="#ffffff" stroke="#e4e4e7" stroke-width="1"/>
    <circle cx="108" cy="88" r="3" fill="#16a34a"/>
    <rect x="122" y="84" width="56" height="5" rx="2.5" fill="#71717a"/>
  </g>
</svg>
